<svg xmlns="http://www.w3.org/2000/svg" xmlns:xlink="http://www.w3.org/1999/xlink" width="500" zoomAndPan="magnify" viewBox="0 0 375 374.999991" height="500" preserveAspectRatio="xMidYMid meet" version="1.0"><defs><g/><clipPath id="3a25df5906"><path d="M 76.792969 99.902344 L 298.207031 99.902344 L 298.207031 176.289062 L 76.792969 176.289062 Z M 76.792969 99.902344 " clip-rule="nonzero"/></clipPath></defs><rect x="-37.5" width="450" fill="#ffffff" y="-37.499999" height="449.999989" fill-opacity="1"/><rect x="-37.5" width="450" fill="#ffffff" y="-37.499999" height="449.999989" fill-opacity="1"/><g clip-path="url(#3a25df5906)"><path fill="#24b4e2" d="M 113.558594 163.503906 C 113.558594 168.257812 117.410156 172.109375 122.164062 172.109375 C 126.914062 172.109375 130.769531 168.257812 130.769531 163.503906 C 130.769531 161.015625 129.703125 158.777344 128.011719 157.207031 L 142.984375 159.625 C 141.550781 161.164062 140.664062 163.21875 140.664062 165.488281 C 140.664062 170.242188 144.515625 174.09375 149.269531 174.09375 C 154.019531 174.09375 157.875 170.242188 157.875 165.488281 C 157.875 164.207031 157.585938 162.996094 157.082031 161.902344 L 172.75 164.4375 C 175.921875 170.976562 181.34375 176.503906 187.492188 176.503906 C 193.644531 176.503906 199.066406 170.976562 202.234375 164.4375 L 217.902344 161.902344 C 217.398438 163 217.113281 164.207031 217.113281 165.488281 C 217.113281 170.242188 220.964844 174.09375 225.71875 174.09375 C 230.472656 174.09375 234.324219 170.242188 234.324219 165.488281 C 234.324219 163.222656 233.4375 161.164062 232.007812 159.625 L 247.292969 157.15625 C 245.570312 158.726562 244.480469 160.984375 244.480469 163.503906 C 244.480469 168.257812 248.332031 172.109375 253.085938 172.109375 C 257.839844 172.109375 261.691406 168.257812 261.691406 163.503906 C 261.691406 160.003906 259.597656 156.996094 256.601562 155.652344 L 298.207031 148.933594 L 298.207031 146.617188 L 205.164062 153.851562 C 205.183594 153.484375 205.203125 153.105469 205.203125 152.75 C 205.203125 151.511719 205.074219 150.300781 204.828125 149.132812 L 228.863281 143.972656 L 228.863281 141.992188 L 202.5625 143.480469 C 200.085938 139.46875 196.066406 136.515625 191.320312 135.46875 L 187.824219 99.960938 L 185.144531 99.960938 L 183.351562 135.550781 C 178.761719 136.652344 174.867188 139.542969 172.449219 143.449219 L 146.128906 141.992188 L 146.128906 143.972656 L 170.191406 149.015625 C 169.929688 150.222656 169.789062 151.46875 169.789062 152.75 C 169.789062 153.113281 169.804688 153.484375 169.828125 153.851562 L 76.792969 146.625 L 76.792969 148.941406 L 118.589844 155.691406 C 115.625 157.050781 113.558594 160.035156 113.558594 163.503906 Z M 113.558594 163.503906 " fill-opacity="1" fill-rule="nonzero"/></g><g fill="#11569c" fill-opacity="1"><g transform="translate(52.410763, 250.89324)"><g><path d="M 43.328125 -2.1875 C 41.734375 -1.195312 39.789062 -0.4375 37.5 0.09375 C 35.207031 0.625 32.765625 0.890625 30.171875 0.890625 C 23.140625 0.890625 17.726562 -0.832031 13.9375 -4.28125 C 10.15625 -7.738281 8.265625 -12.882812 8.265625 -19.71875 L 8.265625 -37.84375 L 0.390625 -37.84375 L 0.390625 -51.984375 L 8.265625 -51.984375 L 8.265625 -66.03125 L 27.1875 -66.03125 L 27.1875 -51.984375 L 39.53125 -51.984375 L 39.53125 -37.84375 L 27.1875 -37.84375 L 27.1875 -19.921875 C 27.1875 -17.992188 27.703125 -16.484375 28.734375 -15.390625 C 29.765625 -14.296875 31.140625 -13.75 32.859375 -13.75 C 35.054688 -13.75 36.984375 -14.3125 38.640625 -15.4375 Z M 43.328125 -2.1875 "/></g></g></g><g fill="#11569c" fill-opacity="1"><g transform="translate(89.352756, 250.89324)"><g><path d="M 24.109375 -47.5 C 26.023438 -49.957031 28.523438 -51.800781 31.609375 -53.03125 C 34.703125 -54.257812 38.242188 -54.875 42.234375 -54.875 L 42.234375 -37.84375 C 40.503906 -38.039062 39.070312 -38.140625 37.9375 -38.140625 C 33.894531 -38.140625 30.726562 -37.046875 28.4375 -34.859375 C 26.144531 -32.671875 25 -29.316406 25 -24.796875 L 25 0 L 6.078125 0 L 6.078125 -53.984375 L 24.109375 -53.984375 Z M 24.109375 -47.5 "/></g></g></g><g fill="#11569c" fill-opacity="1"><g transform="translate(125.896451, 250.89324)"><g><path d="M 29.078125 -54.875 C 38.046875 -54.875 44.882812 -52.832031 49.59375 -48.75 C 54.3125 -44.664062 56.671875 -38.410156 56.671875 -29.984375 L 56.671875 0 L 39.046875 0 L 39.046875 -6.96875 C 36.316406 -1.726562 31.003906 0.890625 23.109375 0.890625 C 18.921875 0.890625 15.300781 0.160156 12.25 -1.296875 C 9.195312 -2.753906 6.890625 -4.726562 5.328125 -7.21875 C 3.765625 -9.707031 2.984375 -12.546875 2.984375 -15.734375 C 2.984375 -20.847656 4.941406 -24.816406 8.859375 -27.640625 C 12.773438 -30.460938 18.816406 -31.875 26.984375 -31.875 L 37.75 -31.875 C 37.414062 -37.582031 33.597656 -40.4375 26.296875 -40.4375 C 23.703125 -40.4375 21.078125 -40.019531 18.421875 -39.1875 C 15.765625 -38.351562 13.507812 -37.207031 11.65625 -35.75 L 5.28125 -48.609375 C 8.269531 -50.597656 11.90625 -52.140625 16.1875 -53.234375 C 20.46875 -54.328125 24.765625 -54.875 29.078125 -54.875 Z M 28.390625 -11.0625 C 30.578125 -11.0625 32.5 -11.585938 34.15625 -12.640625 C 35.820312 -13.703125 37.019531 -15.265625 37.75 -17.328125 L 37.75 -22.015625 L 29.578125 -22.015625 C 24.066406 -22.015625 21.3125 -20.1875 21.3125 -16.53125 C 21.3125 -14.875 21.941406 -13.546875 23.203125 -12.546875 C 24.460938 -11.554688 26.191406 -11.0625 28.390625 -11.0625 Z M 28.390625 -11.0625 "/></g></g></g><g fill="#11569c" fill-opacity="1"><g transform="translate(180.861949, 250.89324)"><g><path d="M 62.9375 -53.984375 L 40.640625 0 L 21.109375 0 L -1.09375 -53.984375 L 18.328125 -53.984375 L 31.265625 -21.015625 L 44.921875 -53.984375 Z M 62.9375 -53.984375 "/></g></g></g><g fill="#11569c" fill-opacity="1"><g transform="translate(235.030826, 250.89324)"><g><path d="M 61.25 -26.890625 C 61.25 -26.753906 61.148438 -25.191406 60.953125 -22.203125 L 21.71875 -22.203125 C 22.507812 -19.421875 24.050781 -17.28125 26.34375 -15.78125 C 28.632812 -14.289062 31.503906 -13.546875 34.953125 -13.546875 C 37.546875 -13.546875 39.785156 -13.910156 41.671875 -14.640625 C 43.566406 -15.367188 45.476562 -16.5625 47.40625 -18.21875 L 57.359375 -7.875 C 52.117188 -2.03125 44.453125 0.890625 34.359375 0.890625 C 28.046875 0.890625 22.5 -0.300781 17.71875 -2.6875 C 12.945312 -5.082031 9.25 -8.398438 6.625 -12.640625 C 4 -16.890625 2.6875 -21.707031 2.6875 -27.09375 C 2.6875 -32.40625 3.960938 -37.164062 6.515625 -41.375 C 9.078125 -45.59375 12.613281 -48.894531 17.125 -51.28125 C 21.644531 -53.675781 26.726562 -54.875 32.375 -54.875 C 37.75 -54.875 42.625 -53.757812 47 -51.53125 C 51.382812 -49.3125 54.851562 -46.09375 57.40625 -41.875 C 59.96875 -37.664062 61.25 -32.671875 61.25 -26.890625 Z M 32.46875 -41.4375 C 29.539062 -41.4375 27.097656 -40.601562 25.140625 -38.9375 C 23.179688 -37.28125 21.9375 -35.023438 21.40625 -32.171875 L 43.515625 -32.171875 C 42.984375 -35.023438 41.738281 -37.28125 39.78125 -38.9375 C 37.820312 -40.601562 35.382812 -41.4375 32.46875 -41.4375 Z M 32.46875 -41.4375 "/></g></g></g><g fill="#11569c" fill-opacity="1"><g transform="translate(291.390393, 250.89324)"><g><path d="M 6.078125 -73.90625 L 25 -73.90625 L 25 0 L 6.078125 0 Z M 6.078125 -73.90625 "/></g></g></g><g fill="#11569c" fill-opacity="1"><g transform="translate(162.057386, 189.458299)"><g><path d="M 6.53125 0 L 4.140625 -4.171875 L 2.828125 -4.171875 L 2.828125 0 L 1.125 0 L 1.125 -10.421875 L 4.71875 -10.421875 C 5.519531 -10.421875 6.195312 -10.28125 6.75 -10 C 7.300781 -9.71875 7.710938 -9.34375 7.984375 -8.875 C 8.265625 -8.40625 8.40625 -7.878906 8.40625 -7.296875 C 8.40625 -6.617188 8.207031 -6 7.8125 -5.4375 C 7.414062 -4.882812 6.8125 -4.507812 6 -4.3125 L 8.578125 0 Z M 2.828125 -5.53125 L 4.71875 -5.53125 C 5.351562 -5.53125 5.832031 -5.6875 6.15625 -6 C 6.488281 -6.320312 6.65625 -6.753906 6.65625 -7.296875 C 6.65625 -7.835938 6.492188 -8.257812 6.171875 -8.5625 C 5.847656 -8.863281 5.363281 -9.015625 4.71875 -9.015625 L 2.828125 -9.015625 Z M 2.828125 -5.53125 "/></g></g></g><g fill="#11569c" fill-opacity="1"><g transform="translate(177.014963, 189.458299)"><g><path d="M 2.828125 -9.03125 L 2.828125 -5.984375 L 6.421875 -5.984375 L 6.421875 -4.578125 L 2.828125 -4.578125 L 2.828125 -1.390625 L 6.875 -1.390625 L 6.875 0 L 1.125 0 L 1.125 -10.421875 L 6.875 -10.421875 L 6.875 -9.03125 Z M 2.828125 -9.03125 "/></g></g></g><g fill="#11569c" fill-opacity="1"><g transform="translate(190.356549, 189.458299)"><g><path d="M 7.40625 -2.125 L 3.046875 -2.125 L 2.296875 0 L 0.515625 0 L 4.234375 -10.421875 L 6.21875 -10.421875 L 9.953125 0 L 8.15625 0 Z M 6.921875 -3.515625 L 5.234375 -8.359375 L 3.515625 -3.515625 Z M 6.921875 -3.515625 "/></g></g></g><g fill="#11569c" fill-opacity="1"><g transform="translate(206.286715, 189.458299)"><g><path d="M 2.828125 -1.375 L 6.359375 -1.375 L 6.359375 0 L 1.125 0 L 1.125 -10.421875 L 2.828125 -10.421875 Z M 2.828125 -1.375 "/></g></g></g></svg>